# xmcd CD database file
#
# Track frame offsets:
#	150
#	10372
#	23447
#	35531
#	49832
#	72740
#	84044
#	97752
#	108968
#	126451
#	139681
#	153804
#	165072
#	183885
#	195749
#	209441
#	222916
#	233810
#	244628
#	254509
#
# Disc length: 3557 seconds
#
# Revision: 1
# Processed by: cddbd v1.5.2PL0 Copyright (c) Steve Scherf et al.
# Submitted via: CDex 1.70beta2
#
DISCID=020de314
DTITLE=John Lee Hooker - CD-2
DYEAR=2008
DGENRE=Blues
TTITLE0=Hey Boogie
TTITLE1=Do My Baby Think Of Me
TTITLE2=Find Me A Woman
TTITLE3=Grinder Man
TTITLE4=Baby Don't Do Me Wrong
TTITLE5=Please Don't Go
TTITLE6=Bluebird
TTITLE7=Boom Boom
TTITLE8=Lonely Boy Boogie
TTITLE9=Down At The Landing
TTITLE10=Going Home
TTITLE11=Hard-Headed Woman
TTITLE12=I Feel Good
TTITLE13=Love My Baby
TTITLE14=My Baby Don't Love Me
TTITLE15=Need Somebody
TTITLE16=Send Me Your Pillow
TTITLE17=I Want To Shout
TTITLE18=I'm Leaving
TTITLE19=I'm Mad
EXTD=YEAR: 2008
EXTT0=
EXTT1=
EXTT2=
EXTT3=
EXTT4=
EXTT5=
EXTT6=
EXTT7=
EXTT8=
EXTT9=
EXTT10=
EXTT11=
EXTT12=
EXTT13=
EXTT14=
EXTT15=
EXTT16=
EXTT17=
EXTT18=
EXTT19=
PLAYORDER=
